<?xml version="1.0" encoding="iso-8859-1"?>
<!-- Generator: Adobe Illustrator 19.0.0, SVG Export Plug-In . SVG Version: 6.00 Build 0)  -->
<svg xmlns="http://www.w3.org/2000/svg" xmlns:xlink="http://www.w3.org/1999/xlink" version="1.1" id="Capa_1" x="0px" y="0px" viewBox="0 0 512 512" style="enable-background:new 0 0 512 512;" xml:space="preserve" width="512px" height="512px">
<g>
	<g>
		<polygon points="444.837,392 331,392 331,512 511.49,512   " fill="#FFFFFF"/>
	</g>
</g>
<g>
	<g>
		<path d="M334.986,194.227L256,273.213l-78.986-78.987L83.826,362h98.683c6.968-34.192,37.271-60,73.491-60    c36.22,0,66.522,25.808,73.491,60h98.683L334.986,194.227z" fill="#FFFFFF"/>
	</g>
</g>
<g>
	<g>
		<polygon points="67.163,392 0.51,512 181,512 181,392   " fill="#FFFFFF"/>
	</g>
</g>
<g>
	<g>
		<path d="M256,332c-24.813,0-45,20.187-45,45v135h90V377C301,352.187,280.813,332,256,332z" fill="#FFFFFF"/>
	</g>
</g>
<g>
	<g>
		<polygon points="273.159,82.914 311.113,14.582 284.887,0 256,52.022 227.113,0 200.887,14.582 238.841,82.914 192.164,166.95     256,230.787 319.836,166.951   " fill="#FFFFFF"/>
	</g>
</g>
<g>
</g>
<g>
</g>
<g>
</g>
<g>
</g>
<g>
</g>
<g>
</g>
<g>
</g>
<g>
</g>
<g>
</g>
<g>
</g>
<g>
</g>
<g>
</g>
<g>
</g>
<g>
</g>
<g>
</g>
</svg>
