<?xml version="1.0" encoding="iso-8859-1"?>
<!-- Generator: Adobe Illustrator 19.1.0, SVG Export Plug-In . SVG Version: 6.00 Build 0)  -->
<svg xmlns="http://www.w3.org/2000/svg" xmlns:xlink="http://www.w3.org/1999/xlink" version="1.1" id="Capa_1" x="0px" y="0px" viewBox="0 0 297 297" style="enable-background:new 0 0 297 297;" xml:space="preserve" width="512px" height="512px">
<path d="M105.989,104.329L85.342,83.682l30.475-30.475l20.647,20.647L105.989,104.329z M72.088,96.934L56.852,112.17  c-1.758,1.757-2.744,4.141-2.744,6.625c0,2.485,0.986,4.867,2.744,6.625l14.024,14.024l21.861-21.861L72.088,96.934z M115.814,53.21  l13.25-13.251l-10.986-10.985c-3.66-3.658-9.59-3.658-13.25,0c-3.658,3.659-3.658,9.592,0,13.25L115.814,53.21z M72.087,96.933  l13.25-13.25L74.353,72.697c-3.66-3.658-9.592-3.658-13.25,0c-3.66,3.659-3.66,9.592,0,13.25L72.087,96.933z M114.602,183.168  l21.857-21.857l-30.475-30.475l-21.859,21.859l-13.25-13.251l-9.772,9.773c-3.66,3.658-3.66,9.591,0,13.25  c1.828,1.829,4.227,2.744,6.625,2.744c2.397,0,4.795-0.915,6.625-2.744l9.769-9.769l30.474,30.474l-9.769,9.767  c-3.658,3.66-3.658,9.592,0,13.251c1.83,1.829,4.227,2.743,6.625,2.743c2.398,0,4.795-0.914,6.625-2.743l9.773-9.772  L114.602,183.168z M183.61,181.954l-13.25,13.251l10.986,10.985c1.83,1.829,4.227,2.743,6.625,2.743  c2.398,0,4.795-0.914,6.625-2.743c3.658-3.659,3.658-9.591,0-13.251L183.61,181.954z M212.863,84.901l-30.474-30.474l-19.435,19.435  l30.474,30.474L212.863,84.901z M227.337,138.23l12.811-12.81c1.757-1.756,2.744-4.14,2.744-6.625c0-2.484-0.986-4.868-2.744-6.625  l-14.023-14.024l-19.436,19.437L227.337,138.23l-13.252,13.25l10.986,10.986c1.83,1.829,4.227,2.744,6.625,2.744  c2.398,0,4.795-0.915,6.625-2.744c3.66-3.659,3.66-9.592,0-13.25L227.337,138.23z M238.32,85.947c3.66-3.658,3.66-9.591,0-13.25  c-3.658-3.658-9.59-3.658-13.25,0l-12.199,12.199l13.252,13.249L238.32,85.947z M119.238,117.58l30.475,30.475l30.473-30.473  l-30.475-30.475L119.238,117.58z M182.397,54.422l12.199-12.199c3.658-3.659,3.658-9.591,0-13.25c-3.66-3.658-9.59-3.658-13.25,0  l-12.198,12.198l-0.001,0.001L182.397,54.422z M162.958,161.31l20.647,20.647l30.474-30.474l-20.647-20.647L162.958,161.31z   M169.148,41.171l-10.066-10.065V9.369h-0.002c0-5.174-4.193-9.369-9.369-9.369c-5.174,0-9.369,4.195-9.369,9.369v19.313  l-11.275,11.276l20.645,20.647L169.148,41.171z M159.08,246.428v-39.946l11.279-11.276l-20.648-20.648l-21.859,21.86l12.49,12.492  v37.518l-19.117,19.119c-3.66,3.658-3.66,9.592,0,13.25c3.658,3.658,9.59,3.658,13.25,0l5.867-5.868v14.702  c0,5.174,4.195,9.369,9.369,9.369c5.176,0,9.369-4.195,9.369-9.369v-14.702l5.869,5.868c1.83,1.829,4.227,2.744,6.625,2.744  s4.795-0.915,6.625-2.744c3.66-3.658,3.66-9.592,0-13.25L159.08,246.428z" fill="#FFFFFF"/>
<g>
</g>
<g>
</g>
<g>
</g>
<g>
</g>
<g>
</g>
<g>
</g>
<g>
</g>
<g>
</g>
<g>
</g>
<g>
</g>
<g>
</g>
<g>
</g>
<g>
</g>
<g>
</g>
<g>
</g>
</svg>
