<?xml version="1.0" encoding="utf-8"?>
<!-- Generator: Adobe Illustrator 22.0.1, SVG Export Plug-In . SVG Version: 6.00 Build 0)  -->
<svg version="1.1" id="Layer_1" xmlns="http://www.w3.org/2000/svg" xmlns:xlink="http://www.w3.org/1999/xlink" x="0px" y="0px"
	 viewBox="0 0 157.8 63.8" style="enable-background:new 0 0 157.8 63.8;" xml:space="preserve">
<style type="text/css">
	.st0{fill:#9C007F;}
	.st1{fill:#314B9E;}
	.st2{fill-rule:evenodd;clip-rule:evenodd;fill:#88AC22;}
	.st3{fill-rule:evenodd;clip-rule:evenodd;fill:#D57717;}
	.st4{fill-rule:evenodd;clip-rule:evenodd;fill:#C43A27;}
	.st5{fill-rule:evenodd;clip-rule:evenodd;fill:#4F8C27;}
	.st6{fill-rule:evenodd;clip-rule:evenodd;fill:#9C007F;}
	.st7{fill-rule:evenodd;clip-rule:evenodd;fill:#44A1D1;}
	.st8{fill-rule:evenodd;clip-rule:evenodd;fill:#314B9E;}
	.st9{fill-rule:evenodd;clip-rule:evenodd;fill:#701882;}
</style>
<path class="st0" d="M152.8,46.7l3.5-5.3h0.9v6.3h-0.8v-5.3l-3.5,5.3h-0.9v-6.3h0.7V46.7z M150.5,47.7l-2.9-3.3l2.8-3h0.9l-2.9,3
	l3.1,3.3H150.5z M147.6,41.5v6.3h-0.7v-6.3H147.6z M141.7,47.7v-3.3l-2.8,3.3h-1l2.9-3.3l-2.7-3h0.9l2.6,3v-3h0.7v3l2.6-3h0.9
	l-2.7,3l2.9,3.3h-1l-2.8-3.3v3.3H141.7z M131.8,41.5v1.2c0.7-0.9,1.5-1.3,2.5-1.3c0.9,0,1.6,0.3,2.2,1c0.6,0.6,0.9,1.4,0.9,2.3
	c0,0.9-0.3,1.7-0.9,2.4c-0.6,0.6-1.4,0.9-2.3,0.9c-0.9,0-1.7-0.4-2.4-1.2v3.8h-0.7v-9H131.8z M136.7,44.6c0-0.7-0.2-1.3-0.7-1.8
	c-0.5-0.5-1.1-0.8-1.8-0.8s-1.3,0.3-1.7,0.8c-0.5,0.5-0.7,1.1-0.7,1.8c0,0.7,0.2,1.2,0.7,1.8c0.5,0.5,1,0.8,1.7,0.8
	c0.7,0,1.3-0.3,1.8-0.8C136.5,45.9,136.7,45.3,136.7,44.6z M130.1,44.8h-5.6c0,0.7,0.2,1.3,0.7,1.7c0.4,0.4,1,0.6,1.8,0.6
	c1,0,1.7-0.4,2.2-1.1h0.9c-0.7,1.2-1.7,1.8-3,1.8c-1,0-1.8-0.3-2.4-0.9c-0.6-0.6-0.9-1.4-0.9-2.4c0-1,0.3-1.7,0.9-2.3
	c0.6-0.6,1.4-0.9,2.4-0.9c1,0,1.8,0.3,2.3,1C129.8,43,130.1,43.8,130.1,44.8z M129.3,44.2c-0.3-1.4-1.1-2.1-2.5-2.1
	c-0.6,0-1.2,0.2-1.6,0.6c-0.4,0.4-0.7,0.9-0.8,1.6H129.3z M122,47.1l-1.6-4.4h0l-1.6,4.4H122z M123.2,49h-0.7v-1.3h-4.5V49h-0.7v-2
	h0.5l2.1-5.6h0.6l2.1,5.6h0.5V49z M116.1,47.1l-1.6-4.4h0l-1.6,4.4H116.1z M117.3,49h-0.7v-1.3h-4.5V49h-0.7v-2h0.5l2.1-5.6h0.6
	l2.1,5.6h0.5V49z M105.4,44.6c0,0.7,0.2,1.4,0.7,1.8c0.5,0.5,1.1,0.7,1.8,0.7c0.8,0,1.4-0.2,1.8-0.7c0.4-0.5,0.7-1.1,0.7-1.8
	c0-0.8-0.2-1.4-0.7-1.9c-0.4-0.5-1-0.7-1.8-0.7c-0.8,0-1.4,0.2-1.8,0.7C105.6,43.2,105.4,43.8,105.4,44.6z M104.7,44.6
	c0-0.9,0.3-1.7,0.9-2.3s1.4-1,2.3-1c0.9,0,1.7,0.3,2.3,1c0.6,0.6,0.9,1.4,0.9,2.3c0,0.9-0.3,1.7-0.9,2.3c-0.6,0.6-1.4,0.9-2.3,0.9
	c-0.9,0-1.7-0.3-2.3-1S104.7,45.5,104.7,44.6z M99.6,47.7h-0.7v-6.3h4.8v6.3h-0.7v-5.6h-3.3V47.7z M89.1,41.5v1.2
	c0.7-0.9,1.5-1.3,2.5-1.3c0.9,0,1.6,0.3,2.2,1c0.6,0.6,0.9,1.4,0.9,2.3c0,0.9-0.3,1.7-0.9,2.4c-0.6,0.6-1.4,0.9-2.3,0.9
	c-0.9,0-1.7-0.4-2.4-1.2v3.8h-0.7v-9H89.1z M94,44.6c0-0.7-0.2-1.3-0.7-1.8c-0.5-0.5-1.1-0.8-1.8-0.8s-1.3,0.3-1.7,0.8
	c-0.5,0.5-0.7,1.1-0.7,1.8c0,0.7,0.2,1.2,0.7,1.8c0.5,0.5,1,0.8,1.7,0.8c0.7,0,1.3-0.3,1.8-0.8C93.7,45.9,94,45.3,94,44.6z
	 M85.3,47.7v-5.6h-1.6v-0.7h3.8v0.7h-1.6v5.6H85.3z M78.9,47.7h-0.7v-6.3h0.7v2.7h3.4v-2.7H83v6.3h-0.7v-2.9h-3.4V47.7z M77.1,44.8
	h-5.6c0,0.7,0.2,1.3,0.7,1.7c0.4,0.4,1,0.6,1.8,0.6c1,0,1.7-0.4,2.2-1.1h0.9c-0.7,1.2-1.7,1.8-3,1.8c-1,0-1.8-0.3-2.4-0.9
	c-0.6-0.6-0.9-1.4-0.9-2.4c0-1,0.3-1.7,0.9-2.3c0.6-0.6,1.4-0.9,2.4-0.9c1,0,1.8,0.3,2.3,1C76.9,43,77.1,43.8,77.1,44.8z M76.4,44.2
	c-0.3-1.4-1.1-2.1-2.5-2.1c-0.6,0-1.2,0.2-1.6,0.6c-0.4,0.4-0.7,0.9-0.8,1.6H76.4z M64.9,41.5h0.7V47h3.2v-5.6h0.7V47h0.7v2h-0.7
	v-1.3h-4.7V41.5z"/>
<path class="st1" d="M153.2,60.5c0-0.6-0.2-0.9-0.5-1.2c-0.3-0.2-0.7-0.3-1.3-0.3h-0.8v2.8h0.8C152.6,61.9,153.2,61.4,153.2,60.5
	 M154.8,60.5c0,1-0.3,1.7-1,2.2c-0.6,0.4-1.4,0.7-2.4,0.7H149v-9.5h1.6v3.7c1.3,0,2.2,0.2,2.9,0.5C154.4,58.5,154.8,59.3,154.8,60.5
	z M157.1,63.4h-1.6v-9.5h1.6V63.4z M146.2,56.8c0-1-0.6-1.5-1.8-1.5h-0.9v2.9h0.9c0.6,0,1-0.1,1.3-0.3
	C146,57.8,146.2,57.4,146.2,56.8z M141.8,63.4v-9.5h2.6c1,0,1.8,0.2,2.4,0.7c0.7,0.5,1,1.3,1,2.2c0,1-0.3,1.7-0.9,2.2
	c-0.6,0.5-1.4,0.7-2.3,0.7h-1.1v3.6H141.8z M140.8,55.4h-3.3v8h-1.6v-9.5h5V55.4z M133,58.6c0-0.9-0.3-1.6-0.8-2.3
	c-0.6-0.7-1.3-1-2.1-1c-0.8,0-1.6,0.4-2.1,1.1c-0.6,0.7-0.8,1.4-0.8,2.3c0,0.9,0.3,1.7,0.8,2.3c0.6,0.7,1.3,1.1,2.2,1.1
	c0.9,0,1.6-0.4,2.2-1.1C132.7,60.3,133,59.5,133,58.6z M134.6,58.6c0,1.3-0.4,2.5-1.3,3.5c-0.9,1-2,1.5-3.3,1.5
	c-1.2,0-2.2-0.4-3-1.2c-0.9-0.8-1.4-1.8-1.5-3h-1.2v4h-1.6v-9.5h1.6v3.9h1.2c0.2-1.1,0.7-2.1,1.6-2.9c0.9-0.8,1.9-1.2,3-1.2
	c1.3,0,2.4,0.5,3.3,1.5C134.2,56.1,134.6,57.3,134.6,58.6z M114.8,59.5l-1.3-3.6l-1.3,3.6H114.8z M118,63.4h-1.8l-0.9-2.4h-3.6
	l-0.9,2.4h-1.7l3.7-9.5h1.5L118,63.4z M109.7,55.4h-1.9v8h-1.6v-8h-1.9v-1.5h5.4V55.4z M102.2,56.8c0-1-0.6-1.5-1.8-1.5h-0.9v2.9
	h0.9c0.6,0,1-0.1,1.3-0.3C102,57.8,102.2,57.4,102.2,56.8z M97.8,63.4v-9.5h2.6c1,0,1.8,0.2,2.4,0.7c0.7,0.5,1,1.3,1,2.2
	c0,1-0.3,1.7-0.9,2.2c-0.6,0.5-1.4,0.7-2.3,0.7h-1.1v3.6H97.8z M94.9,58.6c0-0.9-0.3-1.7-1-2.3c-0.6-0.7-1.4-1-2.3-1
	c-0.9,0-1.6,0.3-2.3,1c-0.6,0.7-1,1.4-1,2.3c0,0.9,0.3,1.7,0.9,2.4c0.6,0.7,1.4,1,2.3,1c0.9,0,1.7-0.3,2.3-1
	C94.6,60.3,94.9,59.5,94.9,58.6z M96.6,58.6c0,1.4-0.5,2.6-1.4,3.5c-0.9,1-2.1,1.4-3.5,1.4c-1.4,0-2.5-0.5-3.5-1.5
	c-1-1-1.4-2.1-1.4-3.5c0-1.3,0.5-2.5,1.5-3.5s2.1-1.4,3.5-1.4c1.4,0,2.5,0.5,3.5,1.4C96.1,56.1,96.6,57.2,96.6,58.6z M85.5,63.4
	h-1.6v-8h-3.6v8h-1.6v-9.5h6.8V63.4z M77.5,60.7c-0.4,0.9-1,1.6-1.7,2.1c-0.8,0.5-1.6,0.7-2.6,0.7c-1.4,0-2.5-0.5-3.5-1.5
	c-0.9-1-1.4-2.1-1.4-3.5c0-1.4,0.5-2.5,1.4-3.5c0.9-0.9,2.1-1.4,3.5-1.4c1,0,1.9,0.3,2.7,0.8c0.8,0.5,1.3,1.2,1.7,2.2h-1.9
	c-0.6-0.9-1.4-1.4-2.5-1.4c-0.9,0-1.6,0.3-2.3,1c-0.6,0.7-0.9,1.4-0.9,2.3c0,0.9,0.3,1.7,0.9,2.4c0.6,0.7,1.4,1,2.3,1
	c1.1,0,1.9-0.4,2.5-1.3H77.5z M68.3,53.9l-3.6,4.7l3.6,4.8h-2l-3.3-4.6v4.6h-1.6v-9.5h1.6v4.6l3.4-4.6H68.3z M60.1,58.6
	c0,1.4-0.5,2.6-1.4,3.6c-0.9,1-2.1,1.4-3.5,1.4c-1,0-1.8-0.2-2.6-0.7c-0.8-0.5-1.3-1.1-1.7-2h1.9c0.6,0.8,1.4,1.2,2.4,1.2
	c0.8,0,1.5-0.3,2.1-0.8c0.6-0.5,0.9-1.1,1-1.9h-4.1v-1.5h4.1c-0.1-0.8-0.5-1.4-1.1-1.9c-0.6-0.5-1.3-0.7-2-0.7c-1,0-1.9,0.4-2.5,1.2
	l-1.9,0c0.4-0.9,0.9-1.6,1.7-2c0.8-0.5,1.6-0.7,2.6-0.7c1.4,0,2.5,0.5,3.5,1.4C59.6,56.1,60.1,57.2,60.1,58.6z"/>
<path class="st2" d="M37.8,1.5c3.8-1.5,5.1-1.4,8.9-0.1c1.3,4.9,0,9.6,0.5,14.7c4.8,1.5,9.3,0.1,14.6,0.7c2.1,6,1.2,10.4-4.9,12.7
	l4.2-3.2c-5.9-0.1-14,0-23.1-1.1C35.6,17.3,39.5,8.7,37.8,1.5"/>
<path class="st3" d="M1.1,24.6C-0.2,21,0,20.4,0.9,17.2c6.5-1,7.9,1.2,14.8-0.6L16.2,2c3.9-1.4,4.9-1.6,9.4-0.8
	c-0.2,7.6,1.6,18.4-0.9,24.5l-12.1,1.4L1.1,24.6z"/>
<path class="st4" d="M1.1,24.6c4.1,0.3,8,1.5,11.9,1.7c3.8,0.2,7.6-0.7,11.6-0.6c2.5-6.1,0.7-16.8,0.9-24.5c7,7.1,5.3,7.6,5.2,14.9
	c-0.1,5.1,0.5,10.3-0.6,14.8c-5.1,0.2-9.7-0.1-15.2,0C9.4,31,4.7,32.4,1.1,24.6"/>
<path class="st5" d="M32.9,30.8c-0.2-5.4,0-9.7-0.1-14.8c0-6.3-1.7-8.2,5-14.6c1.7,7.2-2.2,15.9,0.2,23.8c9.1,1.1,18.1-0.1,24,0
	C58.1,33.6,41.2,30.6,32.9,30.8"/>
<path class="st6" d="M25.8,62.2c-3.8,1.5-5.1,1.4-8.9,0.1c-1.3-4.9,0-9.6-0.5-14.7c-4.8-1.5-9.3-0.1-14.6-0.7
	c-2.1-6-1.2-10.4,4.9-12.7l-4.2,3.2c5.9,0.1,14,0,23.1,1.1C28,46.4,24.1,55,25.8,62.2"/>
<path class="st7" d="M62.5,39.1c1.3,3.6,1.2,4.2,0.2,7.4c-6.5,1-7.9-1.2-14.8,0.6l-0.5,14.6c-3.9,1.4-4.9,1.6-9.4,0.8
	c0.2-7.6-1.6-18.4,0.9-24.5l12.1-1.4L62.5,39.1z"/>
<path class="st8" d="M62.5,39.1c-4.1-0.3-8-1.5-11.9-1.7c-3.8-0.2-7.6,0.7-11.6,0.6c-2.5,6.1-0.7,16.8-0.9,24.5
	c-7-7.1-5.3-7.6-5.2-14.9c0.1-5.1-0.5-10.3,0.6-14.8c5.1-0.2,9.7,0.1,15.2,0C54.2,32.7,58.9,31.3,62.5,39.1"/>
<path class="st9" d="M30.7,32.9c0.2,5.4,0,9.7,0.1,14.8c0,6.3,1.7,8.2-5,14.6C24.1,55,28,46.4,25.5,38.5c-9.1-1.1-18.1,0.1-24,0
	C5.4,30.1,22.4,33.1,30.7,32.9"/>
</svg>
