<?xml version="1.0" encoding="utf-8"?>
<!-- Generator: Adobe Illustrator 22.0.1, SVG Export Plug-In . SVG Version: 6.00 Build 0)  -->
<svg version="1.1" id="Layer_1" xmlns="http://www.w3.org/2000/svg" xmlns:xlink="http://www.w3.org/1999/xlink" x="0px" y="0px"
	 viewBox="0 0 40.1 48" style="enable-background:new 0 0 40.1 48;" xml:space="preserve">
<style type="text/css">
	.st0{clip-path:url(#SVGID_2_);fill:#F6F6F6;}
	.st1{clip-path:url(#SVGID_2_);fill:#E0E0E0;}
	.st2{fill:#E0E0E0;}
	.st3{clip-path:url(#SVGID_4_);fill:#EE2C27;}
	.st4{clip-path:url(#SVGID_4_);fill:#C4434C;}
	.st5{clip-path:url(#SVGID_4_);}
	.st6{clip-path:url(#SVGID_6_);fill:#C4434C;}
	.st7{clip-path:url(#SVGID_8_);fill:#ECA4A9;}
	.st8{fill:#FFFFFF;}
	.st9{font-family:'TwCenMT-Bold';}
	.st10{font-size:9px;}
</style>
<g>
	<defs>
		<rect id="SVGID_1_" x="0.1" y="18" width="40" height="30"/>
	</defs>
	<clipPath id="SVGID_2_">
		<use xlink:href="#SVGID_1_"  style="overflow:visible;"/>
	</clipPath>
	<path class="st0" d="M5.1,47.5c-2.5,0-4.5-2-4.5-4.5V5c0-2.5,2-4.5,4.5-4.5h23.8l10.7,10.7V43c0,2.5-2,4.5-4.5,4.5H5.1z"/>
	<path class="st1" d="M28.7,1l10.4,10.4V43c0,2.2-1.8,4-4,4h-30c-2.2,0-4-1.8-4-4V5c0-2.2,1.8-4,4-4H28.7 M29.1,0h-24
		c-2.8,0-5,2.2-5,5v38c0,2.8,2.2,5,5,5h30c2.8,0,5-2.2,5-5V11L29.1,0L29.1,0z"/>
</g>
<path class="st2" d="M33.3,31.5c0,0.8-0.7,1.5-1.5,1.5H18.3c-0.8,0-1.5-0.7-1.5-1.5c0-0.8,0.7-1.5,1.5-1.5h13.5
	C32.6,30,33.3,30.7,33.3,31.5z"/>
<path class="st2" d="M33.3,37.5c0,0.8-0.7,1.5-1.5,1.5H18.3c-0.8,0-1.5-0.7-1.5-1.5s0.7-1.5,1.5-1.5h13.5
	C32.6,36,33.3,36.7,33.3,37.5z"/>
<path class="st2" d="M33.8,25.5c0,0.8-0.7,1.5-1.5,1.5H7.8c-0.8,0-1.5-0.7-1.5-1.5S7,24,7.8,24h24.5C33.1,24,33.8,24.7,33.8,25.5z"
	/>
<g>
	<defs>
		<rect id="SVGID_3_" x="0.1" y="0" width="40" height="18"/>
	</defs>
	<clipPath id="SVGID_4_">
		<use xlink:href="#SVGID_3_"  style="overflow:visible;"/>
	</clipPath>
	<path class="st3" d="M5.1,47.5c-2.5,0-4.5-2-4.5-4.5V5c0-2.5,2-4.5,4.5-4.5h23.8l10.7,10.7V43c0,2.5-2,4.5-4.5,4.5H5.1z"/>
	<path class="st4" d="M28.7,1l10.4,10.4V43c0,2.2-1.8,4-4,4h-30c-2.2,0-4-1.8-4-4V5c0-2.2,1.8-4,4-4H28.7 M29.1,0h-24
		c-2.8,0-5,2.2-5,5v38c0,2.8,2.2,5,5,5h30c2.8,0,5-2.2,5-5V11L29.1,0L29.1,0z"/>
	<g class="st5">
		<defs>
			<path id="SVGID_5_" d="M40.1,43c0,2.8-2.2,5-5,5h-30c-2.8,0-5-2.2-5-5V5c0-2.8,2.2-5,5-5h24l11,11V43z"/>
		</defs>
		<clipPath id="SVGID_6_">
			<use xlink:href="#SVGID_5_"  style="overflow:visible;"/>
		</clipPath>
		<polygon class="st6" points="30.5,9.5 40.2,19.2 40.2,9.5 		"/>
	</g>
	<g class="st5">
		<defs>
			<path id="SVGID_7_" d="M40.1,43c0,2.8-2.2,5-5,5h-30c-2.8,0-5-2.2-5-5V5c0-2.8,2.2-5,5-5h24l11,11V43z"/>
		</defs>
		<clipPath id="SVGID_8_">
			<use xlink:href="#SVGID_7_"  style="overflow:visible;"/>
		</clipPath>
		<path class="st7" d="M40.1,11h-6c-2.8,0-5-2.2-5-5V0h11V11z"/>
	</g>
</g>
<text transform="matrix(1 0 0 1 5.0706 12)" class="st8 st9 st10">PDF</text>
<path class="st2" d="M14.1,37.5c0,0.8-0.7,1.5-1.5,1.5h-5c-0.8,0-1.5-0.7-1.5-1.5v-6c0-0.8,0.7-1.5,1.5-1.5h5c0.8,0,1.5,0.7,1.5,1.5
	V37.5z"/>
</svg>
