<svg xmlns="http://www.w3.org/2000/svg" viewBox="0 0 512 512" width="512" height="512"><path fill="#FFF" d="M444.837 392L331 392 331 512 511.49 512zM334.986 194.227L256 273.213l-78.986-78.987L83.826 362h98.683c6.968-34.192 37.271-60 73.491-60 36.22 0 66.522 25.808 73.491 60h98.683L334.986 194.227zM67.163 392L.51 512 181 512 181 392z"/><path d="M256 332c-24.813 0-45 20.187-45 45v135h90V377C301 352.187 280.813 332 256 332zM273.159 82.914L311.113 14.582 284.887 0 256 52.022 227.113 0 200.887 14.582 238.841 82.914 192.164 166.95 256 230.787 319.836 166.951z" fill="#FFF"/></svg>